<svg width="58" height="59" viewBox="0 0 58 59" fill="none" xmlns="http://www.w3.org/2000/svg">
<path d="M19.3996 47.2015C19.3996 47.4414 19.1306 47.6333 18.7915 47.6333C18.4056 47.6692 18.1367 47.4774 18.1367 47.2015C18.1367 46.9616 18.4056 46.7698 18.7448 46.7698C19.0956 46.7338 19.3996 46.9257 19.3996 47.2015ZM15.7629 46.6618C15.681 46.9017 15.9149 47.1775 16.2657 47.2495C16.5698 47.3694 16.9206 47.2495 16.9907 47.0096C17.0609 46.7698 16.8387 46.4939 16.4879 46.386C16.1839 46.302 15.8448 46.422 15.7629 46.6618ZM20.9315 46.4579C20.5923 46.5419 20.3585 46.7698 20.3935 47.0456C20.4286 47.2855 20.7327 47.4414 21.0835 47.3574C21.4226 47.2735 21.6565 47.0456 21.6214 46.8057C21.5863 46.5779 21.2706 46.422 20.9315 46.4579ZM28.6258 0.5C12.4069 0.5 0 13.1288 0 29.7634C0 43.0639 8.1621 54.4454 19.8206 58.4511C21.3173 58.727 21.8435 57.7795 21.8435 57C21.8435 56.2564 21.8085 52.1547 21.8085 49.6361C21.8085 49.6361 13.623 51.4351 11.904 46.0622C11.904 46.0622 10.571 42.5721 8.65323 41.6726C8.65323 41.6726 5.9754 39.7897 8.84032 39.8257C8.84032 39.8257 11.752 40.0656 13.354 42.9199C15.9149 47.5493 20.2065 46.2181 21.8786 45.4265C22.1476 43.5076 22.9077 42.1764 23.7496 41.3848C17.2129 40.6412 10.6177 39.6698 10.6177 28.1323C10.6177 24.8342 11.5065 23.1791 13.3774 21.0683C13.0734 20.2888 12.0794 17.0746 13.6815 12.925C16.1254 12.1454 21.75 16.1631 21.75 16.1631C24.0887 15.4915 26.6028 15.1437 29.0935 15.1437C31.5843 15.1437 34.0984 15.4915 36.4371 16.1631C36.4371 16.1631 42.0617 12.1334 44.5056 12.925C46.1077 17.0866 45.1137 20.2888 44.8097 21.0683C46.6806 23.1911 47.8266 24.8462 47.8266 28.1323C47.8266 39.7058 40.9391 40.6292 34.4024 41.3848C35.4782 42.3323 36.3903 44.1313 36.3903 46.9497C36.3903 50.9914 36.3552 55.9925 36.3552 56.976C36.3552 57.7555 36.8931 58.703 38.3782 58.4271C50.0718 54.4454 58 43.0639 58 29.7634C58 13.1288 44.8448 0.5 28.6258 0.5ZM11.3661 41.8645C11.2141 41.9845 11.2492 42.2603 11.448 42.4882C11.6351 42.6801 11.904 42.764 12.056 42.6081C12.2081 42.4882 12.173 42.2123 11.9742 41.9845C11.7871 41.7926 11.5181 41.7086 11.3661 41.8645ZM10.1032 40.8931C10.0214 41.049 10.1383 41.2409 10.3722 41.3608C10.5593 41.4808 10.7931 41.4448 10.875 41.2769C10.9569 41.121 10.8399 40.9291 10.606 40.8091C10.3722 40.7372 10.1851 40.7732 10.1032 40.8931ZM13.8919 45.1627C13.7048 45.3186 13.775 45.6784 14.044 45.9062C14.3129 46.1821 14.652 46.2181 14.804 46.0262C14.956 45.8703 14.8859 45.5105 14.652 45.2826C14.3948 45.0068 14.044 44.9708 13.8919 45.1627ZM12.5589 43.3997C12.3718 43.5196 12.3718 43.8314 12.5589 44.1073C12.746 44.3831 13.0617 44.503 13.2137 44.3831C13.4008 44.2272 13.4008 43.9154 13.2137 43.6395C13.05 43.3637 12.746 43.2438 12.5589 43.3997Z" fill="#0084C5"/>
</svg>
