<svg width="58" height="59" viewBox="0 0 58 59" fill="none" xmlns="http://www.w3.org/2000/svg">
<path d="M29.0065 14.6295C20.7771 14.6295 14.1393 21.2688 14.1393 29.5C14.1393 37.7312 20.7771 44.3705 29.0065 44.3705C37.2358 44.3705 43.8736 37.7312 43.8736 29.5C43.8736 21.2688 37.2358 14.6295 29.0065 14.6295ZM29.0065 39.1677C23.6885 39.1677 19.3409 34.8321 19.3409 29.5C19.3409 24.1679 23.6755 19.8323 29.0065 19.8323C34.3374 19.8323 38.6721 24.1679 38.6721 29.5C38.6721 34.8321 34.3245 39.1677 29.0065 39.1677ZM47.9495 14.0213C47.9495 15.9496 46.3968 17.4897 44.4818 17.4897C42.5538 17.4897 41.0141 15.9367 41.0141 14.0213C41.0141 12.1058 42.5668 10.5528 44.4818 10.5528C46.3968 10.5528 47.9495 12.1058 47.9495 14.0213ZM57.7962 17.5415C57.5762 12.8953 56.5152 8.77971 53.1122 5.38888C49.7221 1.99805 45.6075 0.936796 40.9623 0.703838C36.1748 0.432054 21.8252 0.432054 17.0377 0.703838C12.4055 0.923854 8.2908 1.98511 4.88779 5.37593C1.48477 8.76676 0.436698 12.8823 0.203793 17.5286C-0.0679308 22.3171 -0.0679308 36.6699 0.203793 41.4585C0.423759 46.1047 1.48477 50.2203 4.88779 53.6111C8.2908 57.002 12.3925 58.0632 17.0377 58.2962C21.8252 58.5679 36.1748 58.5679 40.9623 58.2962C45.6075 58.0761 49.7221 57.0149 53.1122 53.6111C56.5023 50.2203 57.5633 46.1047 57.7962 41.4585C58.0679 36.6699 58.0679 22.3301 57.7962 17.5415ZM51.6113 46.5965C50.602 49.1332 48.6482 51.0874 46.0992 52.1098C42.2821 53.6241 33.2247 53.2746 29.0065 53.2746C24.7883 53.2746 15.7179 53.6111 11.9138 52.1098C9.37769 51.1004 7.42387 49.1461 6.40167 46.5965C4.88779 42.7786 5.23714 33.7191 5.23714 29.5C5.23714 25.2809 4.90073 16.2085 6.40167 12.4035C7.41093 9.86684 9.36475 7.91258 11.9138 6.89016C15.7308 5.37593 24.7883 5.72537 29.0065 5.72537C33.2247 5.72537 42.295 5.38888 46.0992 6.89016C48.6353 7.89964 50.5891 9.8539 51.6113 12.4035C53.1252 16.2214 52.7758 25.2809 52.7758 29.5C52.7758 33.7191 53.1252 42.7915 51.6113 46.5965Z" fill="#0084C5"/>
</svg>
